#!OML:ASF I:\Actors\actors\Patient Classification 1\Patient 1\Session 1\Subject1.ASF
:FULLY-SPECIFIED
:DEGREES
899
root 0.747325 17.6281 8.25929 4.11592 0.418086 -9.73135
lowerback 0.35002 0.0473576 7.813
upperback -6.20088 0.427563 0.927049
thorax -6.66548 -0.192983 -3.42393
lowerneck -12.5847 -4.75139 -3.04378
upperneck 32.1893 -9.28412 8.85857
head 13.5695 -3.34076 2.59325
rclavicle -2.48481e-015 6.36111e-015
rhumerus -17.8647 70.8644 -111.628
rradius 127.267
rwrist -9.66757
rhand 2.73302 -55.0094
rfingers 7.12502
rthumb 28.2054 -802.907
lclavicle -2.48481e-015 6.36111e-015
lhumerus -133.759 -102.689 228.148
lradius 100.397
lwrist 40.235
lhand 38.2408 -9.54942
lfingers 7.12502
lthumb 60.9215 3.22568
rfemur -6.23226 17.0837 27.9543
rtibia 13.8196
rfoot -15.602 -17.3194
rtoes -0.644007
lfemur 0.870267 -25.9812 -6.89275
ltibia 2.22968
lfoot -10.6973 33.0006
ltoes -8.10165
900
root 0.745097 17.6306 8.24143 4.23779 0.414166 -9.77351
lowerback 0.919602 -0.0462314 7.78628
upperback -6.27111 0.360446 0.934736
thorax -7.08022 -0.241477 -3.39839
lowerneck -13.0884 -4.78535 -3.24911
upperneck 31.6252 -9.33174 9.20407
head 13.4736 -3.34253 2.73358
rclavicle 8.94531e-015 -2.78299e-014
rhumerus -17.5368 70.8419 -111.643
rradius 127.202
rwrist -9.40334
rhand 3.49961 -54.1124
rfingers 7.12502
rthumb 28.9379 -801.887
lclavicle 8.94531e-015 -2.78299e-014
lhumerus -136.577 -103.134 231.007
lradius 99.8287
lwrist 40.0859
lhand 38.2249 -9.82479
lfingers 7.12502
lthumb 60.9081 2.96549
rfemur -6.44786 16.9383 27.925
rtibia 13.7968
rfoot -15.4598 -17.1723
rtoes -0.946276
lfemur 0.626575 -26.0197 -6.75073
ltibia 2.31032
lfoot -10.6319 33.0559
ltoes -8.10346
901
root 0.742145 17.6336 8.22291 4.38439 0.393603 -9.84054
lowerback 1.47734 -0.150955 7.73129
upperback -6.39315 0.280901 0.987204
thorax -7.54731 -0.295739 -3.30705
lowerneck -13.096 -4.75914 -3.99555
upperneck 30.6937 -9.36873 10.362
head 13.196 -3.32878 3.29208
rclavicle -2.5842e-015 3.97569e-015
rhumerus -17.5176 70.9686 -111.939
rradius 127.098
rwrist -8.85503
rhand 4.21159 -53.0424
rfingers 7.12502
rthumb 29.6177 -800.698
lclavicle -2.5842e-015 3.97569e-015
lhumerus -140.157 -103.515 234.497
lradius 99.1293
lwrist 39.5575
lhand 37.3325 -10.1793
lfingers 7.12502
lthumb 60.1495 3.44302
rfemur -6.67686 16.9186 27.9294
rtibia 13.7592
rfoot -15.3487 -17.0878
rtoes -0.908339
lfemur 0.393954 -26.1864 -6.57483
ltibia 2.30962
lfoot -10.5646 33.266
ltoes -8.14476
902
root 0.739654 17.6372 8.20395 4.5652 0.345706 -9.9659
lowerback 2.03354 -0.390774 7.84436
upperback -6.55163 0.0342898 1.08185
thorax -8.07868 -0.443882 -3.24721
lowerneck -12.5443 -4.59391 -4.44133
upperneck 29.1828 -9.13538 11.3223
head 12.5069 -3.22457 3.74337
rclavicle -1.39149e-014 2.62396e-014
rhumerus -18.0715 71.4549 -112.922
rradius 126.927
rwrist -8.34877
rhand 4.68706 -51.5652
rfingers 7.12502
rthumb 30.0714 -799.14
lclavicle -1.39149e-014 2.62396e-014
lhumerus -145.313 -104.187 239.244
lradius 98.3015
lwrist 38.9186
lhand 36.1025 -10.5873
lfingers 7.12502
lthumb 59.0935 4.11074
rfemur -6.94528 16.9639 27.9984
rtibia 13.7226
rfoot -15.2395 -17.05
rtoes -0.723911
lfemur 0.160318 -26.4527 -6.31886
ltibia 2.2398
lfoot -10.5689 33.612
ltoes -7.94543
903
root 0.737771 17.6421 8.1856 4.78682 0.221898 -10.0482
lowerback 2.50695 -0.216794 7.78821
upperback -6.56833 0.304057 0.971015
thorax -8.34261 -0.321935 -3.35887
lowerneck -12.3163 -4.88125 -2.75289
upperneck 27.2547 -9.35452 10.1094
head 11.5571 -3.35662 2.89976
rclavicle 3.57812e-015 3.97569e-015
rhumerus -16.8951 71.0346 -111.792
rradius 126.542
rwrist -7.6173
rhand 4.66793 -49.3601
rfingers 7.12502
rthumb 30.0532 -796.938
lclavicle 3.57812e-015 3.97569e-015
lhumerus -146.842 -104.249 240.781
lradius 97.4041
lwrist 38.6778
lhand 34.7731 -10.8971
lfingers 7.12502
lthumb 57.9393 4.87864
rfemur -7.24754 16.9504 27.9986
rtibia 13.6549
rfoot -15.0835 -16.9182
rtoes -0.773435
lfemur -0.091743 -26.5458 -6.09724
ltibia 2.19938
lfoot -10.6363 33.847
ltoes -7.47614
904
root 0.737065 17.6461 8.16825 5.01414 0.0647564 -10.0784
lowerback 2.99792 -0.254706 7.85198
upperback -6.61109 0.305016 0.933925
thorax -8.68111 -0.340813 -3.43481
lowerneck -12.9062 -4.93502 -1.70851
upperneck 26.2352 -9.22333 8.93803
head 11.1548 -3.34672 2.27643
rclavicle -3.08116e-015 -1.27222e-014
rhumerus -16.8661 71.1727 -111.851
rradius 126.019
rwrist -7.15197
rhand 4.21128 -46.9356
rfingers 7.12502
rthumb 29.6174 -794.591
lclavicle -3.08116e-015 -1.27222e-014
lhumerus -150.681 -104.964 244.242
lradius 96.4848
lwrist 38.4167
lhand 32.8145 -10.8897
lfingers 7.12502
lthumb 56.2179 6.32975
rfemur -7.51439 16.9097 27.9296
rtibia 13.5099
rfoot -14.8847 -16.7069
rtoes -0.87688
lfemur -0.336297 -26.5643 -5.94658
ltibia 2.1695
lfoot -10.6845 34.0344
ltoes -7.02807
905
root 0.738204 17.6493 8.15075 5.22878 -0.0868331 -10.1015
lowerback 3.58251 -0.304772 7.97958
upperback -6.68228 0.305563 0.88864
thorax -9.10956 -0.369122 -3.55535
lowerneck -14.0374 -4.93972 -1.82407
upperneck 25.9724 -9.22238 9.0637
head 11.296 -3.31432 2.31279
rclavicle -6.95746e-016 -3.65764e-014
rhumerus -17.1098 71.2118 -112.067
rradius 125.383
rwrist -7.02837
rhand 4.08408 -44.2986
rfingers 7.12502
rthumb 29.496 -791.976
lclavicle -6.95746e-016 -3.65764e-014
lhumerus -155.015 -105.874 248.116
lradius 95.5592
lwrist 38.1145
lhand 30.9363 -10.7867
lfingers 7.12502
lthumb 54.5467 7.67489
rfemur -7.76847 16.92 27.8479
rtibia 13.3808
rfoot -14.7284 -16.5269
rtoes -0.681332
lfemur -0.551688 -26.7352 -5.84172
ltibia 2.13021
lfoot -10.7693 34.3719
ltoes -6.61494
